<svg width="512" height="512" viewBox="0 0 512 512" fill="none" xmlns="http://www.w3.org/2000/svg">
    <path d="M483.55 227.55H462C411.32 227.55 385.93 166.28 421.77 130.44L437 115.19C442.022 109.798 444.755 102.667 444.623 95.3001C444.492 87.9329 441.506 80.9043 436.296 75.6947C431.085 70.4851 424.055 67.5013 416.688 67.3717C409.321 67.2421 402.191 69.9769 396.8 75L381.56 90.22C345.72 126.05 284.45 100.67 284.45 49.99V28.44C284.45 20.8946 281.453 13.6582 276.117 8.3228C270.782 2.98739 263.545 -0.0100098 256 -0.0100098C248.455 -0.0100098 241.218 2.98739 235.883 8.3228C230.547 13.6582 227.55 20.8946 227.55 28.44V50C227.55 100.68 166.28 126.06 130.44 90.23L115.2 75C109.809 69.9769 102.679 67.2421 95.312 67.3717C87.9448 67.5013 80.9154 70.4851 75.7046 75.6947C70.4937 80.9043 67.5081 87.9329 67.3767 95.3001C67.2453 102.667 69.9783 109.798 75 115.19L90.25 130.44C126.09 166.28 100.7 227.55 50.02 227.55H28.45C24.6697 227.479 20.9132 228.162 17.4 229.56C13.8868 230.958 10.6875 233.042 7.98895 235.69C5.29044 238.338 3.1469 241.498 1.68362 244.985C0.220341 248.471 -0.533325 252.214 -0.533325 255.995C-0.533325 259.776 0.220341 263.519 1.68362 267.005C3.1469 270.492 5.29044 273.652 7.98895 276.3C10.6875 278.948 13.8868 281.032 17.4 282.43C20.9132 283.828 24.6697 284.511 28.45 284.44H50C100.68 284.44 126.07 345.72 90.23 381.56L75 396.8C70.0276 402.202 67.3358 409.316 67.4875 416.657C67.6393 423.997 70.6228 430.994 75.8143 436.186C81.0057 441.377 88.0032 444.361 95.3434 444.513C102.684 444.664 109.798 441.972 115.2 437L130.44 421.75C166.28 385.91 227.55 411.3 227.55 461.98V483.52C227.55 491.065 230.547 498.302 235.883 503.637C241.218 508.973 248.455 511.97 256 511.97C263.545 511.97 270.782 508.973 276.117 503.637C281.453 498.302 284.45 491.065 284.45 483.52V462C284.45 411.32 345.72 385.93 381.56 421.77L396.8 437C402.202 441.972 409.316 444.664 416.657 444.513C423.997 444.361 430.994 441.377 436.186 436.186C441.377 430.994 444.361 423.997 444.513 416.657C444.664 409.316 441.973 402.202 437 396.8L421.75 381.56C385.91 345.72 411.3 284.44 461.98 284.44H483.52C487.3 284.511 491.057 283.828 494.57 282.43C498.083 281.032 501.283 278.948 503.981 276.3C506.68 273.652 508.823 270.492 510.286 267.005C511.75 263.519 512.503 259.776 512.503 255.995C512.503 252.214 511.75 248.471 510.286 244.985C508.823 241.498 506.68 238.338 503.981 235.69C501.283 233.042 498.083 230.958 494.57 229.56C491.057 228.162 487.3 227.479 483.52 227.55H483.55ZM224 272C214.507 272 205.226 269.185 197.333 263.911C189.439 258.636 183.287 251.14 179.654 242.369C176.021 233.598 175.07 223.947 176.922 214.636C178.774 205.325 183.346 196.772 190.059 190.059C196.772 183.346 205.325 178.774 214.636 176.922C223.947 175.07 233.598 176.021 242.369 179.654C251.14 183.287 258.636 189.439 263.911 197.333C269.185 205.226 272 214.506 272 224C272 236.73 266.943 248.939 257.941 257.941C248.939 266.943 236.73 272 224 272V272ZM304 328C299.253 328 294.613 326.592 290.666 323.955C286.72 321.318 283.643 317.57 281.827 313.184C280.01 308.799 279.535 303.973 280.461 299.318C281.387 294.662 283.673 290.386 287.029 287.029C290.386 283.673 294.662 281.387 299.318 280.461C303.973 279.535 308.799 280.01 313.184 281.827C317.57 283.643 321.318 286.72 323.955 290.666C326.592 294.613 328 299.253 328 304C328 310.365 325.471 316.47 320.971 320.971C316.47 325.471 310.365 328 304 328Z" fill="#CCDB38"/>
</svg>
